<?xml version="1.0" standalone="no"?>
<!DOCTYPE svg PUBLIC "-//W3C//DTD SVG 20010904//EN"
 "http://www.w3.org/TR/2001/REC-SVG-20010904/DTD/svg10.dtd">
<svg version="1.0" xmlns="http://www.w3.org/2000/svg"
 width="152.000000pt" height="143.000000pt" viewBox="0 0 152.000000 143.000000"
 preserveAspectRatio="xMidYMid meet">

<g transform="translate(0.000000,143.000000) scale(0.100000,-0.100000)"
fill="#000000" stroke="none">
<path d="M232 1098 c2 -19 10 -24 45 -26 36 -3 47 -10 88 -57 94 -110 115
-204 115 -511 0 -118 4 -214 9 -214 5 0 27 20 50 45 23 25 45 45 50 45 5 0 20
-18 35 -40 14 -22 30 -40 35 -40 5 0 25 18 44 40 19 22 39 40 45 40 6 0 26
-18 45 -40 19 -22 38 -40 43 -40 5 0 24 21 43 45 18 25 37 45 41 45 5 0 28
-22 53 -50 25 -27 49 -50 54 -50 5 0 9 96 9 218 0 297 27 415 116 517 31 34
42 40 89 45 46 4 54 8 54 25 0 20 -8 20 -533 23 l-533 2 3 -22z m388 -85 c6
-32 13 -65 15 -73 4 -15 -57 -90 -73 -90 -15 0 -182 197 -182 215 0 3 51 5
114 5 l115 0 11 -57z m233 37 c-10 -95 -15 -108 -58 -156 l-44 -49 -37 37
c-29 28 -41 51 -54 105 -9 37 -15 72 -13 76 3 4 50 6 106 5 84 -2 102 -6 100
-18z m277 11 c0 -11 -60 -86 -133 -166 l-55 -60 -37 35 c-36 35 -37 36 -30 95
12 114 0 105 136 105 65 0 119 -4 119 -9z m-438 -198 c35 -34 35 -49 -2 -92
l-30 -35 -26 25 c-45 42 -48 55 -18 94 14 19 31 35 37 35 6 0 24 -12 39 -27z
m193 -13 l39 -40 -36 -37 c-41 -40 -48 -39 -89 19 l-21 29 27 34 c14 19 29 35
33 35 5 0 26 -18 47 -40z m151 13 c-3 -10 -8 -35 -12 -55 -7 -43 -10 -45 -36
-21 -24 22 -23 32 9 65 30 32 47 36 39 11z m-516 -18 c23 -24 23 -25 5 -45
-22 -24 -30 -18 -39 33 -8 43 1 47 34 12z m110 -128 c0 -13 -40 -67 -50 -67
-5 0 -23 18 -40 41 l-33 40 29 30 28 29 33 -32 c18 -18 33 -36 33 -41z m165
33 l39 -40 -35 -37 c-18 -21 -35 -40 -37 -42 -4 -8 -62 52 -68 71 -5 17 39 88
55 88 4 0 25 -18 46 -40z m180 0 l29 -30 -34 -35 c-19 -19 -36 -35 -39 -34 -4
0 -17 13 -29 30 l-24 30 27 34 c14 19 29 35 34 35 4 0 20 -14 36 -30z m-276
-105 c17 -20 31 -39 31 -43 -1 -11 -48 -62 -58 -62 -5 0 -23 18 -41 41 l-33
41 28 29 c15 16 31 29 35 29 4 0 21 -16 38 -35z m186 5 l29 -30 -40 -41 -39
-40 -28 31 -27 31 31 39 c18 22 35 40 39 40 3 0 19 -14 35 -30z m-337 -34 c-2
-11 -11 -22 -20 -24 -14 -3 -18 3 -18 26 0 16 3 32 7 35 11 12 34 -15 31 -37z
m452 9 c0 -37 -10 -44 -29 -21 -9 11 -10 20 -1 35 16 32 30 25 30 -14z m-381
-76 l34 -41 -32 -31 -32 -32 -29 35 c-16 19 -30 41 -30 49 0 14 38 61 49 61 3
0 21 -19 40 -41z m350 9 c14 -24 13 -28 -13 -62 -32 -43 -48 -45 -75 -10 l-21
26 31 40 c35 44 56 46 78 6z m-182 -10 c30 -28 29 -38 -7 -73 l-30 -29 -25 24
c-30 29 -31 33 -3 70 26 36 34 37 65 8z m-88 -97 c26 -36 26 -40 -4 -73 -30
-35 -36 -35 -64 2 l-22 30 27 35 c14 19 30 35 35 35 4 0 17 -13 28 -29z m168
7 c29 -27 29 -46 -3 -82 -29 -33 -44 -30 -71 15 -15 24 -14 28 7 58 28 37 36
38 67 9z m133 -33 c0 -61 -9 -68 -38 -28 -20 27 -20 28 0 55 29 41 38 34 38
-27z m-444 3 c6 -19 -19 -58 -38 -58 -9 0 -11 84 -1 93 9 9 31 -11 39 -35z"/>
</g>
</svg>
