<?xml version="1.0" encoding="utf-8"?>
<!-- Generator: Adobe Illustrator 18.0.0, SVG Export Plug-In . SVG Version: 6.00 Build 0)  -->
<!DOCTYPE svg PUBLIC "-//W3C//DTD SVG 1.1//EN" "http://www.w3.org/Graphics/SVG/1.1/DTD/svg11.dtd">
<svg version="1.1" id="Слой_1" xmlns="http://www.w3.org/2000/svg" xmlns:xlink="http://www.w3.org/1999/xlink" x="0px" y="0px"
	 viewBox="90 0 654 1024" enable-background="new 90 0 654 1024" xml:space="preserve">
<path fill="#000000"      d="
	M711,246.8c0,0,30.2-11.8,26.7-16.9c0,0,0.4-8.3-33.5,7.3c0,0-9,0.1,18.9-19.5c0,0,15-7.8,6.3-12.2c0,0-4.5-2.3-8.4,0.5
	c0,0,1.8-8.3-7.8-5l-33.1,20.6c0,0-6.2,7.8-9-1.1c0,0,3.4-24.1-10.1-25.7c0,0-6.8,2.2-0.6,19c0,0,0,12.9-6.1,17.9
	c0,0-10.6,12.3-9.5,18.5c0,0-31.3,12.3-72.2,22.9c0,0-33.6-1.1-63.8,22.9c0,0-39.2,5-57.1,12.3c0,0-15.3-2.2-34.2-8.4
	c0,0-25.2-10.1-52-3.4c0,0-9-1.7-11.2,1.7c0,0-15.7-11.8-22.9-10.1c0,0,0.3-10.8,0.3-17.2c0,0,8.8-5.6,7.6-17.6l0.4-11.2
	c0,0,1.6-17.6-0.8-22.4c0,0,2.4-33.7-32.9-41.3c0,0-36.5-3.6-44.5,35.7c0,0-2,16-0.8,21.2c0,0-2,10.4,0.4,14l-21.6-21.6
	c0,0-17.2-44.5-38.5-73.7l-2.4-9.2c0,0,16.1-15,28.8-26.4l6.4-3.8c0,0,10.9-0.9,17.7-2.6c5.3,1.7,10.9,2.6,16.7,2.6
	c30.3,0,54.8-24.6,54.8-54.8S298.7,5,268.4,5s-54.8,24.6-54.8,54.8c0,3.7,0.4,7.2,1.1,10.7c-2.3,6.1-4,13.5-4.1,22.3
	c0,0-37.4,14.6-45.8,28.6c0,0-7.2,0.6-6.1,21.3c0,0,2.8,46.5,11.2,60.5c0,0,3.9,35.3,21.8,49.3c0,0,2.8,39.7,18.5,54.3
	c0,0-7.8,38.6,11.8,61c0,0,12.3,30.2,8.4,58.2c0,0-14,54.3,6.2,70.5c0,0-5.6,8.4-5.6,20.7c0,0-44.2,24.6-28,72.8
	c0,0,22.9,48.1,44.2,61.6c0,0,10.3,28.9,17.5,38.3c0,0-5.2,7.2-17.5,38.6c0,0-7.8,13.9,34.1,24.3h0.9v11.6c0,0-13.6,17.1-17.5,28.8
	c0,0-7.7-7.8-21.7,11.2l-6.4,5.6c0,0-9.9-3.4-8.8,18.5l2.9,11.2c0,0-28.5,26.9-31.9,31.9c0,0-5.6-2.8-11.2,6.2L172,891
	c0,0-22.4-14-31.9-11.2c0,0-7.3-6.7-17.3,1.7c0,0-11.2,16.2-7.8,58.8c0,0-2.2,17.9-12.3,30.8c0,0-14.1,18.5,3.8,46.4
	c0,0,6.2,8.4,14.6,6.2c0,0,10.6-7.3,13.4-31.9c0,0,22.4-24.1,34.1-38.1c0,0,11.8-10.6,19-9c0,0,4.7-4.5,3.5-16.8l22.8-14
	c0,0,8.4-2.8,8.4-8.4l24.9-11.2c0,0,10.5,40.3,34.5,47c0,0,13.7,2.8,17.6-3.9c0,0,8.1-7.8,3.5-47.6l0.7-19c0,0,23.5-12.3,40.9-27.4
	c0,0,11.2-6.7,16.8-40.9c0,0,7.3-15.1,10.1-42.5c0,0,38.2-21.9,47.7-46.5c0,0,16.1-18.4-9.6-51.4l-14-18.9l-13.3-34.2
	c0,0,1-20.7-10.8-44.2c0,0,5-21.7-6.2-29.3c0,0,1.1-15.4-1.7-19.9c0,0,11.8,6.2,10.6-19c0,0,6.7-11.2,11.2-43.7
	c0,0,14.5-34.1,12.3-97.4c0,0,35.8,7.8,75.6-7.8c0,0,10.6-3.4,28-5.6c0,0,35.3-2.8,73.9-26.3l76.7-33.6c0,0,17.9,3.4,35.8-9.5
	c0,0,10.1-4.5,12.9-6.7c0,0,15.5-2.3,27.7-5.7c8.1-2.2,9-8.7-4.1-9.4l-19.6,1.7C704.3,252.4,699.8,249.6,711,246.8z"/>
</svg>
